<mxfile host="app.diagrams.net" modified="2021-05-25T13:07:51.185Z" agent="5.0 (Windows NT 10.0; Win64; x64) AppleWebKit/537.36 (KHTML, like Gecko) Chrome/90.0.4430.212 Safari/537.36" etag="MtHI-Txe0hKmps0uwguE" version="14.7.1" type="github">
  <diagram id="ZNi3mMLhj56ZAOI9WwpC" name="Page-1">
    <mxGraphModel dx="1102" dy="614" grid="1" gridSize="10" guides="1" tooltips="1" connect="1" arrows="1" fold="1" page="1" pageScale="1" pageWidth="850" pageHeight="1100" math="0" shadow="0">
      <root>
        <mxCell id="0" />
        <mxCell id="1" parent="0" />
        <mxCell id="halnavZ-PMHdOLAHeDIK-3" style="edgeStyle=orthogonalEdgeStyle;rounded=0;orthogonalLoop=1;jettySize=auto;html=1;" edge="1" parent="1" source="halnavZ-PMHdOLAHeDIK-1">
          <mxGeometry relative="1" as="geometry">
            <mxPoint x="420" y="200" as="targetPoint" />
          </mxGeometry>
        </mxCell>
        <mxCell id="halnavZ-PMHdOLAHeDIK-1" value="start" style="ellipse;whiteSpace=wrap;html=1;" vertex="1" parent="1">
          <mxGeometry x="360" y="20" width="120" height="80" as="geometry" />
        </mxCell>
        <mxCell id="halnavZ-PMHdOLAHeDIK-6" style="edgeStyle=orthogonalEdgeStyle;rounded=0;orthogonalLoop=1;jettySize=auto;html=1;" edge="1" parent="1" source="halnavZ-PMHdOLAHeDIK-2" target="halnavZ-PMHdOLAHeDIK-4">
          <mxGeometry relative="1" as="geometry" />
        </mxCell>
        <mxCell id="halnavZ-PMHdOLAHeDIK-2" value="Array[24,79,38,15,200]&lt;br&gt;index =0&lt;br&gt;i=0&lt;br&gt;min=Array[0]" style="shape=parallelogram;perimeter=parallelogramPerimeter;whiteSpace=wrap;html=1;fixedSize=1;" vertex="1" parent="1">
          <mxGeometry x="350" y="200" width="150" height="80" as="geometry" />
        </mxCell>
        <mxCell id="halnavZ-PMHdOLAHeDIK-8" style="edgeStyle=orthogonalEdgeStyle;rounded=0;orthogonalLoop=1;jettySize=auto;html=1;exitX=1;exitY=0.5;exitDx=0;exitDy=0;" edge="1" parent="1" source="halnavZ-PMHdOLAHeDIK-4">
          <mxGeometry relative="1" as="geometry">
            <mxPoint x="640" y="435" as="targetPoint" />
            <Array as="points">
              <mxPoint x="580" y="435" />
              <mxPoint x="580" y="435" />
            </Array>
          </mxGeometry>
        </mxCell>
        <mxCell id="halnavZ-PMHdOLAHeDIK-17" style="edgeStyle=orthogonalEdgeStyle;rounded=0;orthogonalLoop=1;jettySize=auto;html=1;" edge="1" parent="1" source="halnavZ-PMHdOLAHeDIK-4" target="halnavZ-PMHdOLAHeDIK-18">
          <mxGeometry relative="1" as="geometry">
            <mxPoint x="425.5" y="610" as="targetPoint" />
          </mxGeometry>
        </mxCell>
        <mxCell id="halnavZ-PMHdOLAHeDIK-4" value="i &amp;lt; Array(length)" style="rhombus;whiteSpace=wrap;html=1;" vertex="1" parent="1">
          <mxGeometry x="373" y="380" width="105" height="110" as="geometry" />
        </mxCell>
        <mxCell id="halnavZ-PMHdOLAHeDIK-26" style="edgeStyle=orthogonalEdgeStyle;rounded=0;orthogonalLoop=1;jettySize=auto;html=1;exitX=0;exitY=0.5;exitDx=0;exitDy=0;" edge="1" parent="1" source="halnavZ-PMHdOLAHeDIK-7" target="halnavZ-PMHdOLAHeDIK-2">
          <mxGeometry relative="1" as="geometry" />
        </mxCell>
        <mxCell id="halnavZ-PMHdOLAHeDIK-7" value="i++" style="rounded=0;whiteSpace=wrap;html=1;" vertex="1" parent="1">
          <mxGeometry x="650" y="210" width="120" height="60" as="geometry" />
        </mxCell>
        <mxCell id="halnavZ-PMHdOLAHeDIK-9" value="true" style="text;html=1;align=center;verticalAlign=middle;resizable=0;points=[];autosize=1;strokeColor=none;" vertex="1" parent="1">
          <mxGeometry x="490" y="400" width="40" height="20" as="geometry" />
        </mxCell>
        <mxCell id="halnavZ-PMHdOLAHeDIK-18" value="" style="rounded=0;whiteSpace=wrap;html=1;" vertex="1" parent="1">
          <mxGeometry x="365.5" y="580" width="120" height="60" as="geometry" />
        </mxCell>
        <mxCell id="halnavZ-PMHdOLAHeDIK-22" value="false" style="text;html=1;align=center;verticalAlign=middle;resizable=0;points=[];autosize=1;strokeColor=none;" vertex="1" parent="1">
          <mxGeometry x="390" y="510" width="40" height="20" as="geometry" />
        </mxCell>
        <mxCell id="halnavZ-PMHdOLAHeDIK-28" value="" style="rhombus;whiteSpace=wrap;html=1;" vertex="1" parent="1">
          <mxGeometry x="650" y="395" width="80" height="80" as="geometry" />
        </mxCell>
      </root>
    </mxGraphModel>
  </diagram>
</mxfile>
